{"asset":{"version":"2.0","generator":"Blockbench 4.7.0 glTF exporter"},"scenes":[{"nodes":[0,1,9],"name":"blockbench_export"}],"scene":0,"nodes":[{"translation":[0,0.36250000000000004,0],"name":"Head","mesh":0},{"rotation":[0.13052619222005157,0,0,0.9914448613738104],"translation":[0,0.168125,0],"name":"Body","mesh":1},{"translation":[0,0.5625,0],"name":"head"},{"translation":[-0.0062500000000000056,-0.125,-0.06875000000000002],"name":"left_foot"},{"translation":[0.09375000000000003,0,0.04375],"name":"left_leg","children":[3]},{"translation":[-0.0062500000000000056,-0.125,-0.06875000000000002],"name":"right_foot"},{"translation":[-0.09374999999999997,0,0.04375],"name":"right_leg","children":[5]},{"translation":[0,0.3125,-0.0625],"name":"body","children":[4,6]},{"name":"root","children":[2,7]},{"name":"root","mesh":2,"children":[8],"skin":0}],"bufferViews":[{"buffer":0,"byteOffset":0,"byteLength":3168,"target":34962,"byteStride":12},{"buffer":0,"byteOffset":3168,"byteLength":3168,"target":34962,"byteStride":12},{"buffer":0,"byteOffset":6336,"byteLength":2112,"target":34962,"byteStride":8},{"buffer":0,"byteOffset":8448,"byteLength":720,"target":34963},{"buffer":0,"byteOffset":9168,"byteLength":3168,"target":34962,"byteStride":12},{"buffer":0,"byteOffset":12336,"byteLength":3168,"target":34962,"byteStride":12},{"buffer":0,"byteOffset":15504,"byteLength":2112,"target":34962,"byteStride":8},{"buffer":0,"byteOffset":17616,"byteLength":720,"target":34963},{"buffer":0,"byteOffset":18336,"byteLength":12672,"target":34962,"byteStride":12},{"buffer":0,"byteOffset":31008,"byteLength":12672,"target":34962,"byteStride":12},{"buffer":0,"byteOffset":43680,"byteLength":8448,"target":34962,"byteStride":8},{"buffer":0,"byteOffset":52128,"byteLength":8448,"target":34962,"byteStride":8},{"buffer":0,"byteOffset":60576,"byteLength":16896,"target":34962,"byteStride":16},{"buffer":0,"byteOffset":77472,"byteLength":2880,"target":34963},{"buffer":0,"byteOffset":80352,"byteLength":448}],"buffers":[{"byteLength":80800,"uri":"data:application/octet-stream;base64,"}],"accessors":[{"bufferView":0,"componentType":5126,"count":264,"max":[0.1899999976158142,0.5462499856948853,0.1899999976158142],"min":[-0.1899999976158142,0.16625000536441803,-0.1899999976158142],"type":"VEC3"},{"bufferView":1,"componentType":5126,"count":264,"max":[0.9659258127212524,0.9659258127212524,0.9659258127212524],"min":[-0.9659258127212524,-0.9659258127212524,-0.9659258127212524],"type":"VEC3"},{"bufferView":2,"componentType":5126,"count":264,"max":[0.26794999837875366,0.25882500410079956],"min":[0,0],"type":"VEC2"},{"bufferView":3,"componentType":5123,"count":360,"max":[263],"min":[0],"type":"SCALAR"},{"bufferView":4,"componentType":5126,"count":264,"max":[0.12014999985694885,0.4071750044822693,0.008899999782443047],"min":[-0.12014999985694885,0.04672500118613243,-0.2313999980688095],"type":"VEC3"},{"bufferView":5,"componentType":5126,"count":264,"max":[0.9844171404838562,0.927859902381897,0.9844171404838562],"min":[-0.9844171404838562,-0.927859902381897,-0.9844171404838562],"type":"VEC3"},{"bufferView":6,"componentType":5126,"count":264,"max":[0.26794999837875366,0.25882500410079956],"min":[0,0],"type":"VEC2"},{"bufferView":7,"componentType":5123,"count":360,"max":[263],"min":[0],"type":"SCALAR"},{"bufferView":8,"componentType":5126,"count":1056,"max":[0.1611880213022232,0.35113629698753357,0.012298251502215862],"min":[-0.1694067120552063,0.0239097997546196,-0.16373524069786072],"type":"VEC3"},{"bufferView":9,"componentType":5126,"count":1056,"max":[0.9928315877914429,0.9958896040916443,0.9955801367759705],"min":[-0.9928315877914429,-0.9958896040916443,-0.9955801367759705],"type":"VEC3"},{"bufferView":10,"componentType":5126,"count":1056,"max":[0.26794999837875366,0.25882500410079956],"min":[0,0],"type":"VEC2"},{"bufferView":11,"componentType":5123,"count":1056,"max":[0,6,0,0],"min":[0,3,0,0],"type":"VEC4"},{"bufferView":12,"componentType":5126,"count":1056,"max":[0,1,0,0],"min":[0,1,0,0],"type":"VEC4"},{"bufferView":13,"componentType":5123,"count":1440,"max":[1055],"min":[0],"type":"SCALAR"},{"bufferView":14,"componentType":5126,"count":7,"max":[1,0,0,0,0,1,0,0,0,0,1,0,0.10000000149011612,0,0.08749999850988388,1],"min":[1,0,0,0,0,1,0,0,0,0,1,0,-0.09375,-0.5625,0,1],"type":"MAT4"}],"materials":[{"pbrMetallicRoughness":{"metallicFactor":0,"roughnessFactor":1},"alphaMode":"MASK","alphaCutoff":0.05,"doubleSided":true}],"meshes":[{"primitives":[{"mode":4,"attributes":{"POSITION":0,"NORMAL":1,"TEXCOORD_0":2},"indices":3,"material":0}]},{"primitives":[{"mode":4,"attributes":{"POSITION":4,"NORMAL":5,"TEXCOORD_0":6},"indices":7,"material":0}]},{"primitives":[{"mode":4,"attributes":{"POSITION":8,"NORMAL":9,"TEXCOORD_0":10,"JOINTS_0":11,"WEIGHTS_0":12},"indices":13,"material":0}]}],"skins":[{"inverseBindMatrices":14,"joints":[8,2,7,4,3,6,5],"skeleton":8}]}